{
    "asset" : {
        "generator" : "Khronos glTF Blender I/O v1.7.33",
        "version" : "2.0"
    },
    "scene" : 0,
    "scenes" : [
        {
            "name" : "Scene",
            "nodes" : [
                0
            ]
        }
    ],
    "nodes" : [
        {
            "mesh" : 0,
            "name" : "Zbrush:Group44280.001"
        }
    ],
    "materials" : [
        {
            "name" : "lambert2",
            "normalTexture" : {
                "index" : 0
            },
            "occlusionTexture" : {
                "index" : 1
            },
            "pbrMetallicRoughness" : {
                "baseColorTexture" : {
                    "index" : 2
                },
                "metallicRoughnessTexture" : {
                    "index" : 1
                }
            }
        }
    ],
    "meshes" : [
        {
            "name" : "Zbrush:Group44280",
            "primitives" : [
                {
                    "attributes" : {
                        "POSITION" : 0,
                        "NORMAL" : 1,
                        "TEXCOORD_0" : 2
                    },
                    "indices" : 3,
                    "material" : 0
                }
            ]
        }
    ],
    "textures" : [
        {
            "sampler" : 0,
            "source" : 0
        },
        {
            "sampler" : 0,
            "source" : 1
        },
        {
            "sampler" : 0,
            "source" : 2
        }
    ],
    "images" : [
        {
            "bufferView" : 4,
            "mimeType" : "image/jpeg",
            "name" : "lambert2_normal"
        },
        {
            "bufferView" : 5,
            "mimeType" : "image/jpeg",
            "name" : "lambert2_occlusionRoughnessMetallic"
        },
        {
            "bufferView" : 6,
            "mimeType" : "image/jpeg",
            "name" : "lambert2_baseColor"
        }
    ],
    "accessors" : [
        {
            "bufferView" : 0,
            "componentType" : 5126,
            "count" : 11357,
            "max" : [
                0.2509711682796478,
                0.1882290542125702,
                0.040145281702280045
            ],
            "min" : [
                -0.24999061226844788,
                0.05774970352649689,
                -0.024097401648759842
            ],
            "type" : "VEC3"
        },
        {
            "bufferView" : 1,
            "componentType" : 5126,
            "count" : 11357,
            "type" : "VEC3"
        },
        {
            "bufferView" : 2,
            "componentType" : 5126,
            "count" : 11357,
            "type" : "VEC2"
        },
        {
            "bufferView" : 3,
            "componentType" : 5123,
            "count" : 64614,
            "type" : "SCALAR"
        }
    ],
    "bufferViews" : [
        {
            "buffer" : 0,
            "byteLength" : 136284,
            "byteOffset" : 0
        },
        {
            "buffer" : 0,
            "byteLength" : 136284,
            "byteOffset" : 136284
        },
        {
            "buffer" : 0,
            "byteLength" : 90856,
            "byteOffset" : 272568
        },
        {
            "buffer" : 0,
            "byteLength" : 129228,
            "byteOffset" : 363424
        },
        {
            "buffer" : 0,
            "byteLength" : 361543,
            "byteOffset" : 492652
        },
        {
            "buffer" : 0,
            "byteLength" : 670554,
            "byteOffset" : 854196
        },
        {
            "buffer" : 0,
            "byteLength" : 816530,
            "byteOffset" : 1524752
        }
    ],
    "samplers" : [
        {
            "magFilter" : 9729,
            "minFilter" : 9987
        }
    ],
    "buffers" : [
        {
            "byteLength" : 2341284,
            "uri" : "data:application/octet-stream;base64,"
        }
    ]
}
