{
    "asset" : {
        "generator" : "Khronos glTF Blender I/O v1.7.33",
        "version" : "2.0"
    },
    "scene" : 0,
    "scenes" : [
        {
            "name" : "Scene",
            "nodes" : [
                0
            ]
        }
    ],
    "nodes" : [
        {
            "mesh" : 0,
            "name" : "for_zbrush5:cyl_low.001"
        }
    ],
    "materials" : [
        {
            "name" : "lambert1",
            "normalTexture" : {
                "index" : 0
            },
            "occlusionTexture" : {
                "index" : 1
            },
            "pbrMetallicRoughness" : {
                "baseColorTexture" : {
                    "index" : 2
                },
                "metallicRoughnessTexture" : {
                    "index" : 1
                }
            }
        }
    ],
    "meshes" : [
        {
            "name" : "for_zbrush5:cyl_low",
            "primitives" : [
                {
                    "attributes" : {
                        "POSITION" : 0,
                        "NORMAL" : 1,
                        "TEXCOORD_0" : 2
                    },
                    "indices" : 3,
                    "material" : 0
                }
            ]
        }
    ],
    "textures" : [
        {
            "sampler" : 0,
            "source" : 0
        },
        {
            "sampler" : 0,
            "source" : 1
        },
        {
            "sampler" : 0,
            "source" : 2
        }
    ],
    "images" : [
        {
            "bufferView" : 4,
            "mimeType" : "image/jpeg",
            "name" : "lambert1_normal"
        },
        {
            "bufferView" : 5,
            "mimeType" : "image/jpeg",
            "name" : "lambert1_occlusionRoughnessMetallic"
        },
        {
            "bufferView" : 6,
            "mimeType" : "image/jpeg",
            "name" : "lambert1_baseColor"
        }
    ],
    "accessors" : [
        {
            "bufferView" : 0,
            "componentType" : 5126,
            "count" : 18655,
            "max" : [
                0.20554466545581818,
                0.22812624275684357,
                0.03687094524502754
            ],
            "min" : [
                -0.20931951701641083,
                -0.001384327420964837,
                -0.03406771644949913
            ],
            "type" : "VEC3"
        },
        {
            "bufferView" : 1,
            "componentType" : 5126,
            "count" : 18655,
            "type" : "VEC3"
        },
        {
            "bufferView" : 2,
            "componentType" : 5126,
            "count" : 18655,
            "type" : "VEC2"
        },
        {
            "bufferView" : 3,
            "componentType" : 5123,
            "count" : 98187,
            "type" : "SCALAR"
        }
    ],
    "bufferViews" : [
        {
            "buffer" : 0,
            "byteLength" : 223860,
            "byteOffset" : 0
        },
        {
            "buffer" : 0,
            "byteLength" : 223860,
            "byteOffset" : 223860
        },
        {
            "buffer" : 0,
            "byteLength" : 149240,
            "byteOffset" : 447720
        },
        {
            "buffer" : 0,
            "byteLength" : 196374,
            "byteOffset" : 596960
        },
        {
            "buffer" : 0,
            "byteLength" : 430121,
            "byteOffset" : 793336
        },
        {
            "buffer" : 0,
            "byteLength" : 671572,
            "byteOffset" : 1223460
        },
        {
            "buffer" : 0,
            "byteLength" : 612965,
            "byteOffset" : 1895032
        }
    ],
    "samplers" : [
        {
            "magFilter" : 9729,
            "minFilter" : 9987
        }
    ],
    "buffers" : [
        {
            "byteLength" : 2508000,
            "uri" : "data:application/octet-stream;base64,"
        }
    ]
}
