{
    "asset" : {
        "generator" : "Khronos glTF Blender I/O v1.7.33",
        "version" : "2.0"
    },
    "scene" : 0,
    "scenes" : [
        {
            "name" : "Scene",
            "nodes" : [
                0
            ]
        }
    ],
    "nodes" : [
        {
            "mesh" : 0,
            "name" : "SM_Shield_LOW:RetopoGroup1.001",
            "scale" : [
                0.25999999046325684,
                0.25999999046325684,
                0.25999999046325684
            ]
        }
    ],
    "materials" : [
        {
            "name" : "lambert1",
            "normalTexture" : {
                "index" : 0
            },
            "occlusionTexture" : {
                "index" : 1
            },
            "pbrMetallicRoughness" : {
                "baseColorTexture" : {
                    "index" : 2
                },
                "metallicRoughnessTexture" : {
                    "index" : 1
                }
            }
        }
    ],
    "meshes" : [
        {
            "name" : "SM_Shield_LOW:RetopoGroup1",
            "primitives" : [
                {
                    "attributes" : {
                        "POSITION" : 0,
                        "NORMAL" : 1,
                        "TEXCOORD_0" : 2
                    },
                    "indices" : 3,
                    "material" : 0
                }
            ]
        }
    ],
    "textures" : [
        {
            "sampler" : 0,
            "source" : 0
        },
        {
            "sampler" : 0,
            "source" : 1
        },
        {
            "sampler" : 0,
            "source" : 2
        }
    ],
    "images" : [
        {
            "bufferView" : 4,
            "mimeType" : "image/jpeg",
            "name" : "lambert1_normal"
        },
        {
            "bufferView" : 5,
            "mimeType" : "image/jpeg",
            "name" : "lambert1_occlusionRoughnessMetallic"
        },
        {
            "bufferView" : 6,
            "mimeType" : "image/jpeg",
            "name" : "lambert1_baseColor"
        }
    ],
    "accessors" : [
        {
            "bufferView" : 0,
            "componentType" : 5126,
            "count" : 8393,
            "max" : [
                1.4507073163986206,
                2.9014432430267334,
                0.7221436500549316
            ],
            "min" : [
                -1.4536110162734985,
                0.049745120108127594,
                -0.464007169008255
            ],
            "type" : "VEC3"
        },
        {
            "bufferView" : 1,
            "componentType" : 5126,
            "count" : 8393,
            "type" : "VEC3"
        },
        {
            "bufferView" : 2,
            "componentType" : 5126,
            "count" : 8393,
            "type" : "VEC2"
        },
        {
            "bufferView" : 3,
            "componentType" : 5123,
            "count" : 49092,
            "type" : "SCALAR"
        }
    ],
    "bufferViews" : [
        {
            "buffer" : 0,
            "byteLength" : 100716,
            "byteOffset" : 0
        },
        {
            "buffer" : 0,
            "byteLength" : 100716,
            "byteOffset" : 100716
        },
        {
            "buffer" : 0,
            "byteLength" : 67144,
            "byteOffset" : 201432
        },
        {
            "buffer" : 0,
            "byteLength" : 98184,
            "byteOffset" : 268576
        },
        {
            "buffer" : 0,
            "byteLength" : 161343,
            "byteOffset" : 366760
        },
        {
            "buffer" : 0,
            "byteLength" : 1861205,
            "byteOffset" : 528104
        },
        {
            "buffer" : 0,
            "byteLength" : 673670,
            "byteOffset" : 2389312
        }
    ],
    "samplers" : [
        {
            "magFilter" : 9729,
            "minFilter" : 9987
        }
    ],
    "buffers" : [
        {
            "byteLength" : 3062984,
            "uri" : "data:application/octet-stream;base64,"
        }
    ]
}
