{
    "asset" : {
        "generator" : "Khronos glTF Blender I/O v1.7.33",
        "version" : "2.0"
    },
    "scene" : 0,
    "scenes" : [
        {
            "name" : "Scene",
            "nodes" : [
                0
            ]
        }
    ],
    "nodes" : [
        {
            "mesh" : 0,
            "name" : "Handle_low.001"
        }
    ],
    "materials" : [
        {
            "name" : "Handle_Material",
            "normalTexture" : {
                "index" : 0
            },
            "occlusionTexture" : {
                "index" : 1
            },
            "pbrMetallicRoughness" : {
                "baseColorTexture" : {
                    "index" : 2
                },
                "metallicRoughnessTexture" : {
                    "index" : 1
                }
            }
        }
    ],
    "meshes" : [
        {
            "name" : "Handle_low",
            "primitives" : [
                {
                    "attributes" : {
                        "POSITION" : 0,
                        "NORMAL" : 1,
                        "TEXCOORD_0" : 2
                    },
                    "indices" : 3,
                    "material" : 0
                }
            ]
        }
    ],
    "textures" : [
        {
            "sampler" : 0,
            "source" : 0
        },
        {
            "sampler" : 0,
            "source" : 1
        },
        {
            "sampler" : 0,
            "source" : 2
        }
    ],
    "images" : [
        {
            "bufferView" : 4,
            "mimeType" : "image/jpeg",
            "name" : "Handle_Material_normal"
        },
        {
            "bufferView" : 5,
            "mimeType" : "image/jpeg",
            "name" : "Handle_Material_occlusionRoughnessMetallic"
        },
        {
            "bufferView" : 6,
            "mimeType" : "image/jpeg",
            "name" : "Handle_Material_baseColor"
        }
    ],
    "accessors" : [
        {
            "bufferView" : 0,
            "componentType" : 5126,
            "count" : 3402,
            "max" : [
                0.08291936665773392,
                0.242864191532135,
                0.01861635409295559
            ],
            "min" : [
                -0.08384469151496887,
                2.542877155065071e-05,
                -0.017642293125391006
            ],
            "type" : "VEC3"
        },
        {
            "bufferView" : 1,
            "componentType" : 5126,
            "count" : 3402,
            "type" : "VEC3"
        },
        {
            "bufferView" : 2,
            "componentType" : 5126,
            "count" : 3402,
            "type" : "VEC2"
        },
        {
            "bufferView" : 3,
            "componentType" : 5123,
            "count" : 18228,
            "type" : "SCALAR"
        }
    ],
    "bufferViews" : [
        {
            "buffer" : 0,
            "byteLength" : 40824,
            "byteOffset" : 0
        },
        {
            "buffer" : 0,
            "byteLength" : 40824,
            "byteOffset" : 40824
        },
        {
            "buffer" : 0,
            "byteLength" : 27216,
            "byteOffset" : 81648
        },
        {
            "buffer" : 0,
            "byteLength" : 36456,
            "byteOffset" : 108864
        },
        {
            "buffer" : 0,
            "byteLength" : 286440,
            "byteOffset" : 145320
        },
        {
            "buffer" : 0,
            "byteLength" : 652036,
            "byteOffset" : 431760
        },
        {
            "buffer" : 0,
            "byteLength" : 428103,
            "byteOffset" : 1083796
        }
    ],
    "samplers" : [
        {
            "magFilter" : 9729,
            "minFilter" : 9987
        }
    ],
    "buffers" : [
        {
            "byteLength" : 1511900,
            "uri" : "data:application/octet-stream;base64,"
        }
    ]
}
